# xmcd CD database file
#
# Track frame offsets:
#	150
#	16268
#	38316
#	54900
#	75017
#	92197
#	108431
#	128350
#	154796
#	180332
#	201170
#	229567
#
# Disc length: 3298 seconds
#
# Revision: 2
# Processed by: cddbd v1.5.2PL0 Copyright (c) Steve Scherf et al.
# Submitted via: CDex 1.77
#
DISCID=740ce00c
DTITLE=Westgate Chapel with Geron Davis - Portraits of Worship Live
DYEAR=2004
DGENRE=Chorus
TTITLE0=Song of Worship
TTITLE1=Lift Jesus Up
TTITLE2=You Alone Are Worthy
TTITLE3=If It's Praise You Love
TTITLE4=The Lord Has Been Mighty Good
TTITLE5=I Saw Jesus
TTITLE6=God Is Still On His Throne
TTITLE7=Peace Speaker
TTITLE8=What He Is Will Never Change
TTITLE9=I Need A Touch
TTITLE10=Holy Ground
TTITLE11=Tell Everybody
EXTD=YEAR: 2004
EXTT0=
EXTT1=
EXTT2=
EXTT3=
EXTT4=
EXTT5=
EXTT6=
EXTT7=
EXTT8=
EXTT9=
EXTT10=
EXTT11=
PLAYORDER=
